# xmcd
#
# Track frame offsets:
#	150
#	17345
#	35084
#	51777
#	67556
#	86317
#	106158
#	122862
#	136957
#	154700
#	171904
#	187443
#	202688
#	220548
#	237242
#	257076
#	276731
#	294071
#
# Disc length: 4134 seconds
#
# Revision: 2
# Processed by: cddbd v1.5.1PL0 Copyright (c) Steve Scherf et al.
# Submitted via: audiograbber 1.83.01
#
DISCID=f6102412
DTITLE=Various - ibiza trance party
DYEAR=1900
DGENRE=Trance
TTITLE0=warp brothers - we will survive (aquagen remix)
TTITLE1=atb - let u go (wippenberg mix)
TTITLE2=mass effect - alphascan
TTITLE3=energy - party time (remix)
TTITLE4=sister bliss - deliver me (mix 1)
TTITLE5=masymas - koyaanisqatsi (azzido da bass remix)
TTITLE6=luke lockers - stay hear (trance mix)
TTITLE7=fragma -  you are alive (praha remix)
TTITLE8=d:fuse and joy - she rides (original mix)
TTITLE9=koto - koto still alive
TTITLE10=blank and jones - djs, fans and freaks (marco v remix)
TTITLE11=members of mayday - 10 in 01
TTITLE12=airheadz - stanley (here i am)
TTITLE13=jan johnston - flesh (paul oakenfold remix)
TTITLE14=push - strange world 2000 (remix)
TTITLE15=pulsedriver - cambodia (green court remix)
TTITLE16=ado the dream - focus on (it goes on remix)
TTITLE17=elettro nature - atlantis
EXTD=
EXTT0=
EXTT1=
EXTT2=
EXTT3=
EXTT4=
EXTT5=
EXTT6=
EXTT7=
EXTT8=
EXTT9=
EXTT10=
EXTT11=
EXTT12=
EXTT13=
EXTT14=
EXTT15=
EXTT16=
EXTT17=
PLAYORDER=
